# xmcd CD database file
#
# Track frame offsets:
#	150
#	22513
#	40266
#	53023
#	69275
#	86520
#	99984
#	115303
#	133058
#	151630
#	169510
#	182426
#
# Disc length: 2589 seconds
#
# Revision: 0
# Processed by: cddbd v1.4PL0 Copyright (c) Steve Scherf et al.
# Submitted via: CDex 1.50beta10
#
DISCID=7f0a1b0c
DTITLE=Trisha Yearwood - Songbook - A Collection Of Hits
DYEAR=1900
DGENRE=Country
TTITLE0=How Do I Live
TTITLE1=The Song Remembers When
TTITLE2=The Wrong Side Of Memphis
TTITLE3=In Anothers Eyes (duet with Garth Brooks)
TTITLE4=The Woman Before Me
TTITLE5=Perfect Love
TTITLE6=Thinkin' About You
TTITLE7=Down On My Knees
TTITLE8=She's In Love With The Boy
TTITLE9=Walkaway Joe
TTITLE10=XXX's And OOO (An American Girl)
TTITLE11=Like We Never Had A Broken Heart
EXTD=
EXTT0=
EXTT1=
EXTT2=
EXTT3=
EXTT4=
EXTT5=
EXTT6=
EXTT7=
EXTT8=
EXTT9=
EXTT10=
EXTT11=
PLAYORDER=
